<svg width="24" height="24" viewBox="0 0 24 24" fill="none" xmlns="http://www.w3.org/2000/svg">
<g id="logo/logo_icon">
<rect width="24" height="24" rx="12" fill="black"/>
<path id="Vector" d="M19.081 12.4342C20.204 12.4342 21.114 11.5242 21.114 10.4011C21.114 9.27801 20.204 8.36801 19.081 8.36801C18.4033 8.36801 17.8059 8.69987 17.4356 9.20989V9.2064C16.5029 10.4902 14.662 10.5181 13.6856 9.29547C13.0323 7.99772 13.579 6.90258 15.0497 6.61613C15.9859 6.43448 16.695 5.61006 16.695 4.62147C16.695 3.49838 15.7851 2.58838 14.662 2.58838C13.5389 2.58838 12.6289 3.49838 12.6289 4.62147C12.6289 4.97953 12.7232 5.31663 12.8856 5.60832C13.6349 6.95847 13.097 8.11125 11.5826 8.40643C11.0674 8.50599 10.6237 8.80117 10.3251 9.20989V9.2064C9.36965 10.5216 7.45708 10.5216 6.50166 9.2064V9.20989C6.13138 8.70162 5.53403 8.36801 4.85633 8.36801C3.73324 8.36801 2.82324 9.27801 2.82324 10.4011C2.82324 11.5242 3.73324 12.4342 4.85633 12.4342C5.53403 12.4342 6.13138 12.1023 6.50166 11.5923V11.5958C7.42913 10.319 9.25437 10.2858 10.236 11.4875C10.8508 13.0193 8.86661 17.0925 7.30861 17.3789H7.31036C6.36193 17.5518 5.64406 18.3815 5.64406 19.3788C5.64406 20.5019 6.55406 21.4119 7.67715 21.4119C8.80024 21.4119 9.71024 20.5019 9.71024 19.3788C9.71024 19.0277 9.62116 18.6959 9.46396 18.4077C8.6937 16.9737 10.7425 12.6962 12.3407 12.401H12.3389C12.8629 12.3049 13.317 12.008 13.6175 11.5941V11.5975C14.5729 10.2823 16.4855 10.2823 17.4409 11.5975V11.5941C17.8112 12.1023 18.4085 12.4359 19.0862 12.4359L19.081 12.4342Z" fill="#22C35C"/>
</g>
</svg>
