<svg width="17" height="16" viewBox="0 0 17 16" fill="none" xmlns="http://www.w3.org/2000/svg">
<g clip-path="url(#clip0_8338_142)">
<path fill-rule="evenodd" clip-rule="evenodd" d="M8.22213 2C4.90842 2 2.22213 4.68629 2.22213 8C2.22213 11.3137 4.90842 14 8.22213 14C11.5358 14 14.2221 11.3137 14.2221 8C14.2221 4.68629 11.5358 2 8.22213 2ZM0.888794 8C0.888794 3.94991 4.17204 0.666666 8.22213 0.666666C12.2722 0.666666 15.5555 3.94991 15.5555 8C15.5555 12.0501 12.2722 15.3333 8.22213 15.3333C4.17204 15.3333 0.888794 12.0501 0.888794 8ZM7.55546 5.33333C7.55546 4.96514 7.85394 4.66667 8.22213 4.66667H8.22879C8.59698 4.66667 8.89546 4.96514 8.89546 5.33333C8.89546 5.70152 8.59698 6 8.22879 6H8.22213C7.85394 6 7.55546 5.70152 7.55546 5.33333ZM8.22213 7.33333C8.59032 7.33333 8.88879 7.63181 8.88879 8V10.6667C8.88879 11.0349 8.59032 11.3333 8.22213 11.3333C7.85394 11.3333 7.55546 11.0349 7.55546 10.6667V8C7.55546 7.63181 7.85394 7.33333 8.22213 7.33333Z" fill="#97EF83"/>
</g>
<defs>
<clipPath id="clip0_8338_142">
<rect width="16" height="16" fill="white" transform="translate(0.222168)"/>
</clipPath>
</defs>
</svg>
