<svg width="39" height="40" viewBox="0 0 39 40" fill="none" xmlns="http://www.w3.org/2000/svg">
<path d="M34.5476 20.9223C36.9342 20.9223 38.868 18.9886 38.868 16.602C38.868 14.2155 36.9342 12.2817 34.5476 12.2817C33.1075 12.2817 31.8382 12.9869 31.0513 14.0707V14.0633C29.0693 16.7913 25.1573 16.8507 23.0825 14.2526C21.6943 11.4949 22.8561 9.16767 25.9813 8.55897C27.9707 8.17296 29.4776 6.42108 29.4776 4.32031C29.4776 1.93375 27.5438 0 25.1573 0C22.7707 0 20.837 1.93375 20.837 4.32031C20.837 5.08119 21.0374 5.79753 21.3826 6.41737C22.9749 9.28644 21.8317 11.7361 18.6137 12.3634C17.5188 12.5749 16.576 13.2022 15.9414 14.0707V14.0633C13.9111 16.8581 9.8469 16.8581 7.81665 14.0633V14.0707C7.02978 12.9906 5.76042 12.2817 4.32031 12.2817C1.93375 12.2817 0 14.2155 0 16.602C0 18.9886 1.93375 20.9223 4.32031 20.9223C5.76042 20.9223 7.02978 20.2171 7.81665 19.1333V19.1408C9.78751 16.4276 13.6661 16.3571 15.7521 18.9106C17.0585 22.1657 12.8422 30.8212 9.53141 31.4299H9.53512C7.51972 31.7973 5.99425 33.5604 5.99425 35.6797C5.99425 38.0662 7.92799 40 10.3146 40C12.7011 40 14.6349 38.0662 14.6349 35.6797C14.6349 34.9337 14.4456 34.2285 14.1115 33.616C12.4747 30.5688 16.8284 21.4791 20.2246 20.8518H20.2208C21.3343 20.6477 22.2993 20.0167 22.9377 19.1371V19.1445C24.968 16.3496 29.0322 16.3496 31.0624 19.1445V19.1371C31.8493 20.2171 33.1187 20.926 34.5588 20.926L34.5476 20.9223Z" fill="#22C35C"/>
</svg>
