<svg fill="none" height="42" viewBox="0 0 42 42" width="42" xmlns="http://www.w3.org/2000/svg" xmlns:xlink="http://www.w3.org/1999/xlink"><clipPath id="a"><path d="m9 9h24v24h-24z"/></clipPath><rect fill="#000" height="41" rx="20.5" width="41" x=".5" y=".5"/><rect height="41" rx="20.5" stroke="#333" width="41" x=".5" y=".5"/><g clip-path="url(#a)" fill="#fff"><path d="m14.2503 24.9644c.1223-.1223.2883-.191.4613-.191h15.9615c.2907 0 .4363.3516.2306.5571l-3.154 3.1515c-.1223.1223-.2883.191-.4613.191h-15.9615c-.2907 0-.4363-.3516-.2306-.5572z"/><path d="m14.2503 13.191c.1223-.1223.2883-.191.4613-.191h15.9615c.2907 0 .4363.3516.2306.5571l-3.154 3.1515c-.1223.1222-.2883.1909-.4613.1909h-15.9615c-.2907 0-.4363-.3515-.2306-.5571z"/><path d="m27.7497 19.0401c-.1223-.1223-.2883-.191-.4613-.191h-15.9615c-.2907 0-.4363.3516-.2306.5571l3.154 3.1515c.1223.1223.2883.191.4613.191h15.9615c.2907 0 .4363-.3517.2306-.5572z"/></g></svg>