<svg width="23" height="25" viewBox="0 0 23 25" fill="none" xmlns="http://www.w3.org/2000/svg">
<path d="M2.03543 1.15106C3.64381 -0.760656 6.55629 -1.05525 8.5424 0.492874L8.53564 0.482679C9.7341 1.41685 10.3127 2.80814 10.2397 4.18374L10.2447 4.1778C10.061 7.54493 13.0842 10.0877 16.4396 9.56522C16.9647 9.36486 17.5372 9.25477 18.1374 9.25477C20.6931 9.25477 22.7638 11.248 22.7638 13.7079C22.7638 16.1679 20.6931 18.1611 18.1374 18.1611L18.1493 18.1649C17.5395 18.1649 16.9582 18.0506 16.4262 17.8436L16.0346 17.685C12.9338 16.1 10.3316 17.3207 9.72312 20.6518C9.59265 21.3722 9.27669 22.076 8.76391 22.6855C7.15553 24.5973 4.24305 24.8919 2.25694 23.3437C0.270828 21.7956 -0.0352381 18.9922 1.57314 17.0805C2.98891 15.3977 5.42361 14.9719 7.33936 15.9532C10.3504 17.4929 12.8855 16.3823 13.5888 13.2728C13.6131 9.84578 10.3175 7.35567 6.82956 8.25522L6.83456 8.24927C5.44933 8.60699 3.91769 8.34846 2.71923 7.41429C0.73312 5.86616 0.427054 3.06277 2.03543 1.15106Z" fill="#97EF83"/>
</svg>
