<svg width="47" height="18" viewBox="0 0 47 18" fill="none" xmlns="http://www.w3.org/2000/svg">
  <path
    d="M13.1753 7.92703C14.0795 7.92703 14.8122 7.19437 14.8122 6.29016C14.8122 5.38594 14.0795 4.65328 13.1753 4.65328C12.6297 4.65328 12.1487 4.92047 11.8506 5.33109V5.32828C11.0997 6.36188 9.6175 6.38437 8.83141 5.4C8.30547 4.35516 8.74562 3.47344 9.92969 3.24281C10.6834 3.09656 11.2544 2.43281 11.2544 1.63687C11.2544 0.732656 10.5217 0 9.6175 0C8.71328 0 7.98062 0.732656 7.98062 1.63687C7.98062 1.92516 8.05656 2.19656 8.18734 2.43141C8.79062 3.51844 8.3575 4.44656 7.13828 4.68422C6.72344 4.76437 6.36625 5.00203 6.12578 5.33109V5.32828C5.35656 6.38719 3.81672 6.38719 3.0475 5.32828V5.33109C2.74937 4.92187 2.26844 4.65328 1.72281 4.65328C0.818594 4.65328 0.0859375 5.38594 0.0859375 6.29016C0.0859375 7.19437 0.818594 7.92703 1.72281 7.92703C2.26844 7.92703 2.74937 7.65984 3.0475 7.24922V7.25203C3.79422 6.22406 5.26375 6.19734 6.05406 7.16484C6.54906 8.39812 4.95156 11.6775 3.69719 11.9081H3.69859C2.935 12.0473 2.35703 12.7153 2.35703 13.5183C2.35703 14.4225 3.08969 15.1552 3.99391 15.1552C4.89812 15.1552 5.63078 14.4225 5.63078 13.5183C5.63078 13.2356 5.55906 12.9684 5.4325 12.7364C4.81234 11.5819 6.46187 8.13797 7.74859 7.90031H7.74719C8.16906 7.82297 8.53469 7.58391 8.77656 7.25062V7.25344C9.54578 6.19453 11.0856 6.19453 11.8548 7.25344V7.25062C12.153 7.65984 12.6339 7.92844 13.1795 7.92844L13.1753 7.92703Z"
    fill="#ffffff" />
  <path
    d="M11.1751 15.5205C10.6283 15.5205 9.74743 15.4193 9.74743 13.9106V11.5313H8.90706V10.7921H9.74743V9.3139H10.6283V10.7921H11.8028V11.5313H10.6283V13.7183C10.6283 14.6093 10.9321 14.7308 11.3776 14.7308C11.5497 14.7308 11.8332 14.7004 11.9648 14.67V15.4496C11.7927 15.4901 11.4788 15.5205 11.1751 15.5205Z"
    fill="#ffffff" />
  <path
    d="M14.907 15.5813C13.4186 15.5813 12.5985 14.508 12.5985 13.131C12.5985 11.754 13.4794 10.6706 14.9272 10.6706C15.6664 10.6706 16.2739 11.0453 16.5675 11.6224V10.7921H17.4382V15.4598H16.5675V14.6397C16.2739 15.2168 15.6056 15.5813 14.907 15.5813ZM13.4692 13.131C13.4692 14.0828 14.0666 14.7915 15.0285 14.7915C16.0511 14.7915 16.608 14.0321 16.608 13.131C16.608 12.2299 16.0511 11.4604 15.0285 11.4604C14.0666 11.4604 13.4692 12.1691 13.4692 13.131Z"
    fill="#ffffff" />
  <path
    d="M21.5472 10.6706C22.8837 10.6706 23.805 11.673 23.805 13.131C23.805 14.5586 22.8432 15.5813 21.4965 15.5813C20.7777 15.5813 20.1297 15.2168 19.8259 14.6397V17.6164H18.9552V10.7921H19.8259V11.6224C20.1297 11.0351 20.7979 10.6706 21.5472 10.6706ZM19.7854 13.131C19.7854 14.103 20.4435 14.7915 21.375 14.7915C22.2762 14.7915 22.9242 14.103 22.9242 13.131C22.9242 12.159 22.2762 11.4604 21.375 11.4604C20.4435 11.4604 19.7854 12.1489 19.7854 13.131Z"
    fill="#ffffff" />
  <path
    d="M26.9015 15.5813C25.4637 15.5813 24.5626 14.6295 24.5626 13.1209C24.5626 11.6427 25.4738 10.6706 26.861 10.6706C28.1772 10.6706 29.0682 11.5819 29.0682 12.8678C29.0682 13.0399 29.0682 13.1715 29.048 13.3841H25.4333C25.4536 14.2853 26.0105 14.8118 26.9015 14.8118C27.5191 14.8118 27.9443 14.5688 28.1367 14.1233H29.0176C28.8556 14.9839 27.995 15.5813 26.9015 15.5813ZM25.4333 12.7058H28.2076C28.2076 11.8856 27.7013 11.3794 26.8508 11.3794C26.0003 11.3794 25.4739 11.916 25.4333 12.7058Z"
    fill="#ffffff" />
  <path
    d="M31.7765 15.5813C30.6324 15.5813 29.8426 14.9231 29.8426 14.0625H30.7134C30.7134 14.5181 31.1386 14.8725 31.8271 14.8725C32.3435 14.8725 32.6878 14.6194 32.6878 14.2043C32.6878 13.8904 32.546 13.6778 31.9891 13.536L31.0374 13.293C30.3489 13.1006 29.9844 12.6551 29.9844 12.0071C29.9844 11.2174 30.7134 10.6706 31.7259 10.6706C32.8396 10.6706 33.518 11.2073 33.518 12.078H32.6574C32.6574 11.6325 32.303 11.349 31.6955 11.349C31.2095 11.349 30.8551 11.5819 30.8551 11.9666C30.8551 12.2603 31.0273 12.4729 31.5335 12.6146L32.4954 12.8779C33.1839 13.0703 33.5788 13.5259 33.5788 14.1739C33.5788 15.0649 32.8801 15.5813 31.7765 15.5813Z"
    fill="#ffffff" />
  <path
    d="M36.359 15.5205C35.8123 15.5205 34.9314 15.4193 34.9314 13.9106V11.5313H34.091V10.7921H34.9314V9.3139H35.8123V10.7921H36.9868V11.5313H35.8123V13.7183C35.8123 14.6093 36.116 14.7308 36.5615 14.7308C36.7336 14.7308 37.0171 14.7004 37.1488 14.67V15.4496C36.9766 15.4901 36.6628 15.5205 36.359 15.5205Z"
    fill="#ffffff" />
  <path
    d="M38.2164 15.4598V10.7921H39.0973V11.8553C39.2795 11.0655 39.8769 10.7213 40.4641 10.7213C40.6261 10.7213 40.778 10.7314 40.8894 10.7618V11.5718C40.7375 11.5414 40.616 11.5414 40.454 11.5414C39.5326 11.5414 39.0973 12.3818 39.0973 13.4246V15.4598H38.2164Z"
    fill="#ffffff" />
  <path
    d="M45.2062 10.7921H46.077V15.5509C46.077 16.29 45.8542 16.857 45.4492 17.2316C45.0746 17.5556 44.5582 17.7379 43.9203 17.7379C43.2521 17.7379 42.7053 17.5658 42.3408 17.2519C42.0067 16.9684 41.8245 16.5634 41.8143 16.047H42.6952C42.7357 16.614 43.0395 16.9988 43.9102 16.9988C44.7 16.9988 45.2062 16.5533 45.2062 15.4901V14.6194C44.9328 15.1864 44.376 15.5711 43.5862 15.5711C42.3712 15.5711 41.8143 14.7611 41.8143 13.5765V10.7921H42.6851V13.3943C42.6851 14.2245 42.9585 14.7915 43.8798 14.7915C44.781 14.7915 45.2062 14.0321 45.2062 13.1918V10.7921Z"
    fill="#ffffff" />
</svg>
