<svg width="25" height="19" viewBox="0 0 25 19" fill="none" xmlns="http://www.w3.org/2000/svg">
<rect x="10.4349" y="4.35718" width="3.42857" height="3.42857" fill="#97EF83"/>
<rect x="10.4349" y="11.2144" width="3.42857" height="3.42857" fill="#97EF83"/>
<rect x="20.7206" y="11.2144" width="3.42857" height="3.42857" fill="#97EF83"/>
<rect x="13.8634" y="4.35718" width="3.42857" height="3.42857" fill="#97EF83"/>
<rect width="3.42857" height="3.42857" transform="matrix(-1 0 0 1 10.4349 4.35718)" fill="#97EF83"/>
<rect x="17.292" y="7.78577" width="3.42857" height="3.42857" fill="#97EF83"/>
<rect width="3.42857" height="3.42857" transform="matrix(-1 0 0 1 7.00635 7.78577)" fill="#97EF83"/>
<rect width="3.42857" height="3.42857" transform="matrix(-1 0 0 1 3.57776 4.35718)" fill="#97EF83"/>
<rect width="3.42857" height="3.42857" transform="matrix(-1 0 0 1 10.4349 0.928589)" fill="#97EF83"/>
<rect x="13.8634" y="7.78577" width="3.42857" height="3.42857" fill="#97EF83"/>
<rect width="3.42857" height="3.42857" transform="matrix(-1 0 0 1 10.4349 7.78577)" fill="#97EF83"/>
<rect x="13.8634" y="11.2144" width="3.42857" height="3.42857" fill="#97EF83"/>
<rect x="13.8634" y="14.6429" width="3.42857" height="3.42857" fill="#97EF83"/>
<rect width="3.42857" height="3.42857" transform="matrix(-1 0 0 1 10.4349 11.2144)" fill="#97EF83"/>
</svg>
